<?xml version="1.0" encoding="UTF-8"?>
<svg id="Layer_1" data-name="Layer 1" xmlns="http://www.w3.org/2000/svg" viewBox="0 0 16 16">
  <defs>
    <style>
      .cls-1 {
        fill: none;
        stroke: #f0505f;
        stroke-miterlimit: 10;
        stroke-width: .25px;
      }

      .cls-2 {
        fill: #f0505f;
        stroke-width: 0px;
      }
    </style>
  </defs>
  <rect class="cls-1" x=".53" y=".53" width="14.94" height="14.94" rx="3.38" ry="3.38"/>
  <g>
    <path class="cls-2" d="M8.58,2.65c.23.04.47.07.7.13,1.17.3,2.13.9,2.76,1.95.37.62.47,1.29.29,1.99-.16.61-.62.97-1.24.99-.09,0-.12.03-.15.11-.09.27-.24.5-.52.61-.03.01-.06.06-.07.09-.08.39-.25.74-.49,1.06-.04.05-.06.12-.06.18,0,.31,0,.63,0,.95.28.07.56.14.84.21.26.07.53.13.79.2.93.27,1.57,1.13,1.58,2.1,0,.68,0,1.35,0,2.03,0,.1-.03.19-.12.21-.07.01-.16,0-.21-.04-.04-.03-.06-.12-.06-.19,0-.62-.01-1.24,0-1.87.02-1-.63-1.72-1.48-1.9-.47-.1-.94-.23-1.41-.35-.04-.01-.1,0-.14.01-.27.14-.53.28-.79.42.02,0,.06.03.1.04.24.09.48.18.73.27.13.05.18.12.18.26,0,1.03,0,2.06,0,3.09,0,.17-.07.26-.2.26-.13,0-.2-.09-.2-.26,0-.96,0-1.91,0-2.87,0-.11-.04-.16-.14-.19-.41-.15-.82-.31-1.23-.46-.13-.05-.29-.05-.43-.07-.42-.08-.8-.26-1.17-.48-.05-.03-.13-.04-.18-.03-.5.12-1,.24-1.49.37-.85.22-1.37.91-1.38,1.79,0,.63,0,1.27,0,1.9,0,.03,0,.06,0,.09,0,.13-.08.21-.2.21-.12,0-.2-.08-.2-.21,0-.03,0-.06,0-.09,0-.63.01-1.26,0-1.89-.03-1,.66-1.98,1.76-2.22.48-.11.96-.24,1.45-.36,0-.34,0-.67,0-1.01,0-.04-.03-.08-.05-.11-.25-.32-.42-.68-.5-1.08,0-.04-.05-.08-.09-.1-.39-.18-.65-.76-.53-1.17.02-.06.04-.13.08-.16.08-.07.09-.16.09-.26,0-.57,0-1.14,0-1.7,0-.29.05-.58.17-.85.1-.23.25-.41.48-.53.03-.02.06-.04.08-.07.29-.53.77-.79,1.33-.93.19-.04.37-.07.56-.1h.75ZM6,7.74c0,.17,0,.31,0,.45,0,.07.01.14.03.21.22.9.79,1.48,1.64,1.8.2.08.41.08.61.02.84-.26,1.37-.84,1.64-1.66.12-.36.07-.73.07-1.09,0-.07-.03-.15-.07-.21-.12-.22-.29-.43-.37-.66-.07-.22-.2-.27-.4-.29-.84-.06-1.68-.07-2.52.03-.08,0-.11.04-.14.11-.09.21-.16.43-.3.61-.17.23-.25.45-.2.69ZM5.6,6.18c.78-.33,1.59-.33,2.41-.33.81,0,1.62,0,2.4.33,0-.28,0-.55,0-.82,0-.04-.03-.09-.06-.13-.18-.22-.42-.37-.68-.48-1.02-.39-2.06-.39-3.1-.09-.31.09-.6.24-.83.47-.06.06-.13.13-.14.2-.02.28,0,.56,0,.85ZM10.75,5.02c.02.14.05.26.06.38,0,.43,0,.87,0,1.3,0,.15-.03.31.12.42.01,0,.02.03.02.04.02.15.11.15.23.12.03,0,.06,0,.09-.01.07,0,.1-.05.11-.12.02-.35-.08-.66-.28-.94-.03-.04-.06-.07-.07-.12-.02-.09,0-.18.1-.22.1-.05.19-.03.26.05.19.22.29.47.36.75.02.08.03.16.05.24.01,0,.02,0,.03,0,.04-.1.09-.2.12-.31.17-.64.04-1.23-.31-1.78-.91-1.46-2.86-2.06-4.37-1.66-.31.08-.59.22-.81.47.02.02.04.03.06.04.09.06.12.14.08.24-.03.09-.11.14-.21.13-.05,0-.09,0-.14,0-.28.02-.56.32-.55.6.35-.24.74-.39,1.16-.48.04,0,.08-.03.1-.06.23-.31.55-.49.9-.62.17-.06.29-.03.34.1.05.13-.02.22-.2.29-.02,0-.04.01-.06.02-.1.05-.2.09-.31.14.4.02.77.05,1.15.07.04,0,.08-.02.12-.03.29-.14.6-.21.92-.21.12,0,.2.08.21.19,0,.12-.07.2-.2.21-.07,0-.13.01-.23.03.14.06.25.1.35.15.1.05.2.12.31.17.03.02.08.01.12.01.22.01.45.02.67.04.14.02.2.12.18.24-.02.11-.12.18-.26.16-.07-.01-.15-.02-.2-.03ZM7.8,10.65c-.45-.09-.83-.31-1.2-.59,0,.23,0,.44,0,.64,0,.03.04.08.07.1.26.13.52.25.79.37.1.04.22.06.33.08v-.6ZM9.41,10.06c-.37.3-.75.51-1.19.59v.6c.43-.07.8-.24,1.16-.47.02-.01.04-.05.04-.07,0-.21,0-.41,0-.65ZM6.08,6.48l-.03-.04c-.1.05-.21.09-.31.14-.13.06-.16.17-.14.3,0,.03.04.06.07.08.03.01.09.01.11,0,.1-.16.2-.32.3-.48ZM9.97,6.43s-.03.03-.04.05c.09.15.18.31.28.45.02.03.08.04.11.04.11-.03.15-.23.04-.31-.12-.09-.26-.15-.39-.23ZM5.6,7.91c0-.16,0-.32,0-.47,0-.09-.07-.1-.12-.1-.03,0-.07.06-.07.1,0,.18.06.35.2.48ZM10.41,7.91c.14-.13.2-.3.2-.48,0-.03-.05-.1-.07-.1-.06,0-.13.01-.12.1,0,.16,0,.32,0,.47Z"/>
    <path class="cls-2" d="M5.4,13.99c0-.14,0-.27,0-.41,0-.12.07-.19.18-.19.1,0,.17.07.17.18,0,.28,0,.56,0,.84,0,.11-.07.18-.17.18-.1,0-.17-.07-.17-.18,0-.14,0-.29,0-.43Z"/>
    <path class="cls-2" d="M10.26,14c0-.14,0-.28,0-.42,0-.11.07-.18.17-.18.11,0,.18.07.18.19,0,.28,0,.56,0,.84,0,.11-.07.18-.17.18-.11,0-.18-.07-.18-.19,0-.14,0-.28,0-.42Z"/>
    <path class="cls-2" d="M7.48,12.18c0,.1-.08.17-.17.17-.1,0-.18-.08-.17-.18,0-.1.08-.17.18-.16.1,0,.17.08.17.18Z"/>
    <path class="cls-2" d="M8.87,12.18c0,.1-.07.17-.17.17-.1,0-.18-.08-.18-.18,0-.1.08-.17.17-.17.1,0,.17.07.17.17Z"/>
    <path class="cls-2" d="M7.48,13.22c0,.1-.08.17-.17.17-.1,0-.18-.08-.17-.18,0-.1.08-.17.18-.16.1,0,.17.08.17.18Z"/>
    <path class="cls-2" d="M8.7,13.04c.1,0,.17.07.17.17,0,.1-.08.18-.18.17-.1,0-.17-.08-.17-.18,0-.1.08-.17.17-.17Z"/>
    <path class="cls-2" d="M7.31,14.08c.1,0,.17.07.17.17,0,.1-.08.18-.18.18-.1,0-.17-.08-.17-.17,0-.1.07-.17.17-.17Z"/>
    <path class="cls-2" d="M8.69,14.43c-.1,0-.17-.08-.17-.17,0-.1.08-.18.18-.17.1,0,.17.08.16.18,0,.1-.08.17-.18.16Z"/>
  </g>
</svg>